<svg height="390pt" viewBox="0 -11 390.004 390" width="390pt" xmlns="http://www.w3.org/2000/svg"><g fill="#122436"><path d="m178.902344 43.871094h5v10h-5zm0 0"/><path d="m243.6875 43.871094h10.675781v10h-10.675781zm0 0"/><path d="m267.175781 43.871094h10.675781v10h-10.675781zm0 0"/><path d="m220.203125 43.871094h10.675781v10h-10.675781zm0 0"/><path d="m290.664062 43.871094h10.675782v10h-10.675782zm0 0"/><path d="m196.710938 43.871094h10.675781v10h-10.675781zm0 0"/><path d="m314.152344 43.871094h10v10h-10zm0 0"/><path d="m314.152344 269.648438h10v10.273437h-10zm0 0"/><path d="m314.152344 201.832031h10v10.273438h-10zm0 0"/><path d="m314.152344 156.621094h10v10.277344h-10zm0 0"/><path d="m314.152344 134.015625h10v10.277344h-10zm0 0"/><path d="m314.152344 92.742188v28.945312h10v-32.878906h-10zm0 0"/><path d="m314.152344 247.042969h10v10.273437h-10zm0 0"/><path d="m314.152344 179.226562h10v10.277344h-10zm0 0"/><path d="m314.152344 66.203125h10v10.277344h-10zm0 0"/><path d="m314.152344 224.4375h10v10.273438h-10zm0 0"/><path d="m314.152344 292.253906h10v5h-10zm0 0"/></g><path d="m5 13.144531h215.238281v349.332031h-215.238281zm0 0" fill="#4ea3da"/><path d="m5 13.144531h215.238281v23.285157h-215.238281zm0 0" fill="#fff"/><path d="m225.238281 367.476562h-225.238281v-359.332031h225.238281zm-215.238281-10h205.238281v-339.332031h-205.238281zm0 0" fill="#122436"/><path d="m30.296875 62.253906h164.648437v251.109375h-164.648437zm0 0" fill="#ffcc34"/><path d="m30.296875 62.253906h164.648437v23.285156h-164.648437zm0 0" fill="#fff"/><path d="m199.945312 318.363281h-174.648437v-261.109375h174.648437zm-164.648437-10h154.648437v-241.109375h-154.648437zm0 0" fill="#122436"/><path d="m88.601562 333.476562h48.035157v10h-48.035157zm0 0" fill="#122436"/><path d="m88.601562 32.144531h48.035157v10h-48.035157zm0 0" fill="#122436"/><path d="m137.847656 285.351562h-50.457031c-11.464844 0-20.765625-9.292968-20.765625-20.765624 0-11.46875 9.300781-20.765626 20.765625-20.765626h50.457031c11.464844 0 20.765625 9.296876 20.765625 20.765626s-9.296875 20.765624-20.765625 20.765624zm0 0" fill="#fff"/><path d="m139.027344 187.484375c0 14.621094-11.855469 26.476563-26.480469 26.476563-14.621094 0-26.480469-11.855469-26.480469-26.476563 0-14.625 26.480469-70.300781 26.480469-70.300781s26.480469 55.675781 26.480469 70.300781zm0 0" fill="#4ea3da"/><path d="m112.546875 144.113281s16.246094 34.152344 23.289063 55.988281c2.035156-3.753906 3.191406-8.050781 3.191406-12.617187 0-14.625-26.480469-70.300781-26.480469-70.300781s-26.480469 55.675781-26.480469 70.300781c0 4.566406 1.160156 8.863281 3.195313 12.617187 7.042969-21.832031 23.285156-55.988281 23.285156-55.988281zm0 0" fill="#fff"/><path d="m112.546875 218.960938c-17.355469 0-31.480469-14.121094-31.480469-31.476563 0-15.3125 24.207032-66.644531 26.964844-72.449219l4.515625-9.492187 4.515625 9.492187c2.761719 5.804688 26.964844 57.136719 26.964844 72.449219 0 17.355469-14.121094 31.476563-31.480469 31.476563zm0-89.910157c-9.691406 21.304688-21.480469 49.980469-21.480469 58.433594 0 11.84375 9.636719 21.476563 21.480469 21.476563s21.480469-9.632813 21.480469-21.476563c0-8.453125-11.785156-37.128906-21.480469-58.433594zm0 0" fill="#122436"/><path d="m294.917969 15.847656c-1.949219-.007812-3.863281.15625-5.722657.472656l-8.347656-9.871093c-1.273437-1.503907-3.441406-1.882813-5.148437-.90625l-8.578125 4.898437c-1.710938.980469-2.480469 3.039063-1.828125 4.898438l4.261719 12.207031c-2.457032 2.90625-4.425782 6.242187-5.769532 9.878906l-12.71875 2.296875c-1.9375.351563-3.351562 2.035156-3.359375 4.003906l-.042969 9.875c-.007812 1.972657 1.390626 3.667969 3.324219 4.035157l12.695313 2.410156c1.308594 3.648437 3.25 7 5.683594 9.929687l-4.375 12.167969c-.667969 1.855469.082031 3.921875 1.785156 4.914063l8.53125 4.972656c1.703125.992188 3.871094.632812 5.15625-.859375l8.4375-9.792969c1.855468.332032 3.769531.511719 5.71875.519532 1.949218.007812 3.863281-.152344 5.722656-.46875l8.347656 9.867187c1.273438 1.503906 3.4375 1.886719 5.148438.90625l8.574218-4.898437c1.710938-.976563 2.480469-3.035157 1.828126-4.894532l-4.261719-12.210937c2.460937-2.90625 4.425781-6.238281 5.773437-9.878907l12.714844-2.296874c1.9375-.347657 3.351562-2.03125 3.359375-4.003907l.046875-9.875c.007812-1.96875-1.390625-3.664062-3.328125-4.035156l-12.691406-2.410156c-1.3125-3.648438-3.25-7-5.683594-9.925781l4.375-12.171876c.664063-1.851562-.085937-3.917968-1.785156-4.910156l-8.53125-4.976562c-1.703125-.992188-3.871094-.628906-5.15625.863281l-8.4375 9.789063c-1.859375-.332032-3.769531-.511719-5.71875-.519532zm16.363281 33.097656c-.039062 9.121094-7.464844 16.480469-16.585938 16.4375-9.121093-.039062-16.476562-7.464843-16.4375-16.585937.042969-9.117187 7.46875-16.476563 16.585938-16.4375 9.117188.042969 16.476562 7.46875 16.4375 16.585937zm0 0" fill="#ffcc34"/><path d="m306.441406 37.199219c-6.449218-6.449219-16.902344-6.449219-23.351562 0-6.445313 6.445312-6.445313 16.902343 0 23.351562 6.449218 6.445313 16.902344 6.445313 23.351562 0 6.449219-6.449219 6.449219-16.90625 0-23.351562zm0 0" fill="#fff"/><path d="m311.820312 97.742188c-2.601562 0-5.164062-1.117188-6.941406-3.214844l-6.59375-7.792969c-1.226562.113281-2.445312.171875-3.683594.164063-1.230468-.007813-2.460937-.070313-3.6875-.195313l-6.660156 7.730469c-2.859375 3.316406-7.679687 4.125-11.460937 1.917968l-8.53125-4.976562c-3.785157-2.207031-5.457031-6.800781-3.976563-10.925781l3.453125-9.601563c-1.429687-2.011718-2.65625-4.152344-3.667969-6.402344l-10.015624-1.902343c-4.300782-.8125-7.410157-4.585938-7.390626-8.964844l.042969-9.878906c.019531-4.375 3.164063-8.121094 7.472657-8.902344l10.03125-1.808594c1.03125-2.238281 2.273437-4.371093 3.726562-6.371093l-3.367188-9.632813c-1.445312-4.136719.269532-8.714844 4.070313-10.886719l8.578125-4.898437c3.800781-2.171875 8.617188-1.324219 11.441406 2.015625l6.59375 7.792968c1.222656-.109374 2.457032-.175781 3.6875-.160156 1.230469.003906 2.457032.070313 3.683594.191406l6.660156-7.726562c2.855469-3.3203125 7.679688-4.128906 11.460938-1.921875l8.535156 4.976563c3.78125 2.207031 5.453125 6.800781 3.972656 10.921874l-3.453125 9.601563c1.429688 2.015625 2.65625 4.152344 3.664063 6.402344l10.015625 1.902343c4.304687.816407 7.414062 4.585938 7.394531 8.96875l-.046875 9.875c-.019531 4.378907-3.160156 8.125-7.46875 8.902344l-10.035156 1.8125c-1.027344 2.238282-2.273438 4.367188-3.722657 6.367188l3.367188 9.632812c1.441406 4.132813-.269531 8.710938-4.074219 10.886719l-8.574219 4.898437c-1.410156.8125-2.964843 1.203126-4.5 1.203126zm-9.5-21.71875 9.699219 11.464843 7.257813-4.148437-4.960938-14.191406 1.847656-2.183594c2.121094-2.503906 3.769532-5.320313 4.898438-8.378906l.992188-2.679688 14.78125-2.667969.035156-8.359375-14.753906-2.796875-.964844-2.6875c-1.105469-3.070312-2.726563-5.902343-4.824219-8.425781l-1.828125-2.199219 5.085938-14.144531-7.21875-4.210938-9.804688 11.378907-2.808594-.503907c-1.59375-.285156-3.230468-.433593-4.859375-.441406-1.652343-.011718-3.261719.128906-4.859375.398438l-2.816406.480468-9.699219-11.46875-7.257812 4.148438 4.957031 14.191406-1.847656 2.179688c-2.117188 2.503906-3.765625 5.324218-4.898438 8.378906l-.988281 2.679688-14.78125 2.667968-.039063 8.359375 14.757813 2.800781.964844 2.6875c1.105469 3.066407 2.726562 5.902344 4.824219 8.421876l1.828124 2.199218-5.082031 14.144532 7.21875 4.214843 9.804688-11.378906 2.808593.503906c1.59375.285157 3.230469.4375 4.855469.441407 1.625-.003907 3.261719-.128907 4.867188-.398438zm-7.546874-5.640626c-.035157 0-.066407 0-.097657 0-11.863281-.050781-21.472656-9.742187-21.417969-21.609374.054688-11.859376 9.765626-21.5 21.609376-21.414063 5.746093.023437 11.136718 2.289063 15.183593 6.371094 4.046875 4.078125 6.257813 9.492187 6.230469 15.238281-.054688 11.828125-9.695312 21.414062-21.507812 21.414062zm-.003907-33.023437c-6.324219 0-11.484375 5.132813-11.511719 11.460937-.027343 6.347657 5.113282 11.535157 11.460938 11.5625h.050781c6.324219 0 11.484375-5.128906 11.511719-11.457031.011719-3.078125-1.171875-5.972656-3.335938-8.15625-2.164062-2.183593-5.050781-3.394531-8.125-3.410156-.019531 0-.035156 0-.050781 0zm0 0" fill="#122436"/><path d="m176.671875 300.933594h190.273437v28.335937h-190.273437zm0 0" fill="#ffcc34"/><path d="m176.671875 300.933594h190.273437v11.304687h-190.273437zm0 0" fill="#fff"/><path d="m182.90625 238.625h-14.273438c-5.535156 0-10.019531-4.484375-10.019531-10.015625 0-5.535156 4.488281-10.019531 10.019531-10.019531h14.273438c5.535156 0 10.019531 4.488281 10.019531 10.019531 0 5.535156-4.484375 10.015625-10.019531 10.015625zm0 0" fill="#4ea3da"/><path d="m182.90625 218.589844h-14.273438c-5.535156 0-10.019531 4.488281-10.019531 10.019531 0 1.515625.347657 2.949219.949219 4.238281 1.597656-3.414062 5.054688-5.78125 9.070312-5.78125h14.273438c4.019531 0 7.472656 2.367188 9.070312 5.78125.601563-1.289062.949219-2.722656.949219-4.238281 0-5.535156-4.484375-10.019531-10.019531-10.019531zm0 0" fill="#fff"/><path d="m374.984375 238.625h-14.277344c-5.53125 0-10.015625-4.484375-10.015625-10.015625 0-5.535156 4.484375-10.019531 10.015625-10.019531h14.277344c5.535156 0 10.019531 4.488281 10.019531 10.019531 0 5.535156-4.484375 10.015625-10.019531 10.015625zm0 0" fill="#4ea3da"/><path d="m374.984375 218.589844h-14.273437c-5.535157 0-10.019532 4.488281-10.019532 10.019531 0 1.515625.347656 2.949219.949219 4.238281 1.597656-3.414062 5.054687-5.78125 9.070313-5.78125h14.273437c4.019531 0 7.472656 2.367188 9.070313 5.78125.601562-1.289062.949218-2.722656.949218-4.238281 0-5.535156-4.484375-10.019531-10.019531-10.019531zm0 0" fill="#fff"/><path d="m187.796875 329.269531h32.496094v33.207031h-32.496094zm0 0" fill="#4ea3da"/><path d="m187.796875 329.269531h32.496094v11.304688h-32.496094zm0 0" fill="#fff"/><path d="m323.320312 329.269531h32.5v33.207031h-32.5zm0 0" fill="#4ea3da"/><path d="m323.320312 329.269531h32.5v11.304688h-32.5zm0 0" fill="#fff"/><path d="m324.128906 236.957031h-104.644531c-23.644531 0-42.816406 19.171875-42.816406 42.816407v21.160156h190.277343v-21.160156c0-23.648438-19.167968-42.816407-42.816406-42.816407zm0 0" fill="#4ea3da"/><path d="m342.144531 236.957031h-140.675781c-13.695312 0-24.796875 11.105469-24.796875 24.800781v9.890626c0-13.699219 11.101563-24.800782 24.796875-24.800782h140.675781c13.699219 0 24.800781 11.105469 24.800781 24.800782v-9.890626c0-13.695312-11.101562-24.800781-24.800781-24.800781zm0 0" fill="#fff"/><path d="m226.105469 285.351562h-24.558594c-3.753906 0-7.019531-2.5625-7.910156-6.207031l-1.371094-5.609375c-1.257813-5.132812 2.628906-10.082031 7.910156-10.082031h24.554688c3.753906 0 7.023437 2.5625 7.914062 6.210937l1.371094 5.605469c1.257813 5.132813-2.628906 10.082031-7.910156 10.082031zm0 0" fill="#fff"/><path d="m317.511719 285.351562h24.554687c3.753906 0 7.023438-2.5625 7.914063-6.207031l1.371093-5.609375c1.257813-5.132812-2.628906-10.082031-7.910156-10.082031h-24.558594c-3.753906 0-7.019531 2.5625-7.910156 6.210937l-1.371094 5.605469c-1.257812 5.132813 2.628907 10.082031 7.910157 10.082031zm0 0" fill="#fff"/><path d="m294.324219 285.351562h-45.035157l-5.652343-21.902343h56.339843zm0 0" fill="#ffcc34"/><path d="m297.425781 273.339844 2.550781-9.890625h-56.339843l2.554687 9.890625zm0 0" fill="#fff"/><path d="m329.089844 177.261719h-114.5625c-4.664063 0-8.734375 3.164062-9.886719 7.683593l-13.253906 52.011719h160.839843l-13.25-52.011719c-1.152343-4.519531-5.222656-7.683593-9.886718-7.683593zm0 0" fill="#fff"/><path d="m214.527344 177.261719c-4.664063 0-8.734375 3.164062-9.886719 7.683593l-3.710937 14.570313h141.757812l-3.710938-14.570313c-1.152343-4.519531-5.222656-7.683593-9.886718-7.683593zm0 0" fill="#4ea3da"/><path d="m204.640625 194.835938c1.152344-4.519532 5.222656-7.683594 9.886719-7.683594h114.5625c4.664062 0 8.734375 3.164062 9.886718 7.683594l1.191407 4.679687h2.519531l-3.710938-14.570313c-1.152343-4.519531-5.222656-7.683593-9.886718-7.683593h-114.5625c-4.664063 0-8.734375 3.164062-9.886719 7.683593l-3.710937 14.570313h2.519531zm0 0" fill="#fff"/><path d="m374.984375 213.589844h-14.277344c-3.191406 0-6.148437 1.007812-8.582031 2.714844l-8.304688-32.59375c-1.714843-6.738282-7.773437-11.449219-14.730468-11.449219h-114.5625c-2.609375 0-5.089844.664062-7.265625 1.847656-3.625 1.972656-6.394531 5.390625-7.46875 9.601563l-8.304688 32.59375c-2.433593-1.707032-5.390625-2.714844-8.582031-2.714844h-14.277344c-8.28125 0-15.015625 6.738281-15.015625 15.019531s6.738281 15.015625 15.015625 15.015625h14.277344c2.46875 0 4.796875-.609375 6.851562-1.667969h.515626c-11.304688 8.753907-18.601563 22.445313-18.601563 37.816407v54.5h11.125v33.203124h42.496094v-33.203124h93.027343v33.203124h42.496094v-33.203124h11.128906v-54.5c0-15.371094-7.296874-29.0625-18.601562-37.816407h.515625c2.054687 1.0625 4.378906 1.667969 6.847656 1.667969h14.277344c8.285156 0 15.019531-6.734375 15.019531-15.015625s-6.738281-15.019531-15.019531-15.019531zm-160.457031-31.328125h114.5625c.59375 0 1.171875.097656 1.707031.285156 1.617187.5625 2.894531 1.902344 3.332031 3.632813l2.125 8.335937h-128.890625l2.121094-8.335937c.585937-2.308594 2.660156-3.917969 5.042969-3.917969zm-45.898438 51.363281c-2.765625 0-5.015625-2.25-5.015625-5.015625 0-2.769531 2.25-5.019531 5.015625-5.019531h14.277344c2.769531 0 5.019531 2.253906 5.019531 5.019531s-2.25 5.015625-5.019531 5.015625zm46.664063 123.851562h-22.496094v-23.207031h22.496094zm135.527343 0h-22.5v-23.207031h22.496094v23.207031zm11.125-33.207031h-180.273437v-18.335937h180.273437zm0-44.496093v16.160156h-180.273437v-16.160156c0-20.851563 16.960937-37.816407 37.8125-37.816407h104.648437c20.847657 0 37.8125 16.964844 37.8125 37.816407zm-142.460937-47.816407h-21.664063l6.992188-27.441406h133.992188l6.992187 27.441406zm155.5 1.667969h-14.277344c-2.765625 0-5.015625-2.25-5.015625-5.015625 0-2.769531 2.25-5.019531 5.015625-5.019531h14.277344c2.769531 0 5.019531 2.253906 5.019531 5.019531s-2.25 5.015625-5.019531 5.015625zm0 0" fill="#122436"/><path d="m189.835938 263.480469c-2.507813 3.195312-3.394532 7.292969-2.429688 11.242187l1.375 5.609375c1.441406 5.902344 6.691406 10.023438 12.765625 10.023438h24.558594c4.0625 0 7.832031-1.832031 10.339843-5.03125 2.507813-3.195313 3.394532-7.292969 2.425782-11.242188l-1.371094-5.605469c-1.445312-5.902343-6.695312-10.027343-12.769531-10.027343h-24.554688c-4.0625 0-7.832031 1.835937-10.339843 5.03125zm37.953124 7.371093 1.371094 5.605469c.316406 1.296875-.226562 2.242188-.582031 2.691407-.351563.449218-1.140625 1.203124-2.472656 1.203124h-24.554688c-1.453125 0-2.710937-.984374-3.058593-2.398437l-1.371094-5.609375c-.316406-1.292969.230468-2.242188.582031-2.6875.351563-.453125 1.144531-1.207031 2.476563-1.207031h24.554687c1.453125 0 2.710937.988281 3.054687 2.402343zm0 0" fill="#122436"/><path d="m304.742188 274.082031c-.964844 3.949219-.082032 8.042969 2.429687 11.242188 2.507813 3.195312 6.277344 5.027343 10.339844 5.027343h24.554687c6.074219 0 11.324219-4.121093 12.769532-10.019531l1.371093-5.609375c.964844-3.949218.078125-8.046875-2.429687-11.242187-2.507813-3.195313-6.277344-5.03125-10.339844-5.03125h-24.554688c-6.078124 0-11.328124 4.125-12.769531 10.023437zm9.714843 2.375 1.371094-5.609375c.347656-1.410156 1.601563-2.398437 3.054687-2.398437h24.558594c1.328125 0 2.121094.753906 2.472656 1.207031.355469.449219.898438 1.394531.582032 2.6875l-1.371094 5.609375c-.347656 1.414063-1.601562 2.398437-3.058594 2.398437h-24.554687c-1.328125 0-2.121094-.753906-2.472657-1.203124-.355468-.449219-.898437-1.398438-.582031-2.691407zm0 0" fill="#122436"/><path d="m298.203125 290.351562 8.230469-31.902343h-69.246094l8.230469 31.902343zm-4.679687-21.902343-3.070313 11.902343h-37.292969l-3.070312-11.902343zm0 0" fill="#122436"/></svg>